<?xml version="1.0" encoding="UTF-8" standalone="no"?>
<!-- Created with Inkscape (http://www.inkscape.org/) -->

<svg
   width="155.13504mm"
   height="155.73201mm"
   viewBox="0 0 155.13504 155.73201"
   version="1.1"
   id="svg5"
   inkscape:version="1.1.2 (b8e25be833, 2022-02-05)"
   sodipodi:docname="Streamable 2016.svg"
   xmlns:inkscape="http://www.inkscape.org/namespaces/inkscape"
   xmlns:sodipodi="http://sodipodi.sourceforge.net/DTD/sodipodi-0.dtd"
   xmlns="http://www.w3.org/2000/svg"
   xmlns:svg="http://www.w3.org/2000/svg">
  <sodipodi:namedview
     id="namedview7"
     pagecolor="#ffffff"
     bordercolor="#666666"
     borderopacity="1.0"
     inkscape:pageshadow="2"
     inkscape:pageopacity="0.0"
     inkscape:pagecheckerboard="0"
     inkscape:document-units="mm"
     showgrid="false"
     inkscape:zoom="0.64052329"
     inkscape:cx="138.16828"
     inkscape:cy="240.42842"
     inkscape:window-width="1920"
     inkscape:window-height="1017"
     inkscape:window-x="-8"
     inkscape:window-y="-8"
     inkscape:window-maximized="1"
     inkscape:current-layer="layer1" />
  <defs
     id="defs2" />
  <g
     inkscape:label="Layer 1"
     inkscape:groupmode="layer"
     id="layer1"
     transform="translate(12.469017,-106.83205)">
    <g
       id="g3560">
      <path
         fill="currentColor"
         d="m 65.101078,261.63744 c 42.326932,0 76.641892,-34.44833 76.641892,-76.93937 0,-42.49111 -34.31496,-76.93941 -76.641892,-76.93941 -42.332052,0 -76.647035,34.44321 -76.647035,76.93941 0,42.49619 34.314983,76.93937 76.647035,76.93937 z"
         id="path3401"
         style="fill:#ffffff;fill-opacity:1;stroke-width:5.1293"
         sodipodi:nodetypes="sssss" />
      <path
         fill="currentColor"
         d="m 65.10111,262.56406 c 42.83669,0 77.56492,-34.86321 77.56492,-77.86598 0,-43.00285 -34.72823,-77.86603 -77.56492,-77.86603 -42.841874,0 -77.570127,34.85803 -77.570127,77.86603 0,43.00799 34.728253,77.86598 77.570127,77.86598 z m 15.915801,-109.9468 c 3.47284,-2.3931 6.390221,-3.60262 10.304272,-4.32418 2.964099,-0.53464 10.724757,0.11386 13.922457,1.1629 4.65119,1.53661 7.72949,3.06791 11.18154,5.58039 6.48931,4.76318 11.20714,11.55224 13.40853,19.29519 1.59882,5.64789 1.59882,12.99321 -0.0215,19.13425 -1.53132,5.7621 -5.6271,12.83234 -10.12257,17.39011 -3.70643,3.73756 -9.24011,7.17922 -14.1249,8.73656 -5.27411,1.69749 -9.842268,2.21138 -14.737443,1.62999 -3.612943,-0.42044 -4.516199,-0.6074 -7.68793,-1.62999 -4.376077,-1.40164 -11.674713,-5.69462 -11.186751,-6.57708 0.09419,-0.18629 2.154292,-3.30152 4.562956,-6.93011 l 4.402011,-6.59783 1.038278,0.9343 c 1.55212,1.40163 4.287827,2.9018 6.364242,3.58184 6.878167,2.15948 14.104127,0.50872 19.264057,-4.4176 2.70234,-2.51212 4.62507,-5.74848 5.53886,-9.32318 0.61783,-2.32558 0.57623,-7.43878 -0.0942,-9.90453 -2.10757,-7.81256 -7.4336,-12.95172 -14.612852,-14.08855 -7.251922,-1.16289 -12.645437,2.43979 -19.985611,13.29948 -0.949989,1.40166 -3.3119,5.15995 -5.279312,8.36803 -8.819622,14.43637 -13.081489,20.08941 -18.988925,25.08321 -4.142483,3.53514 -7.662016,5.4195 -12.718112,6.81072 -2.086818,0.58663 -2.528049,0.6229 -7.085823,0.6229 -4.308582,0 -5.123569,-0.0411 -7.065026,-0.53463 -5.27415,-1.27703 -8.456282,-2.62668 -12.437824,-5.29486 C 6.7520432,209.21027 1.4934894,201.09665 -0.54659521,190.84427 -1.0086408,188.4512 -0.93585072,180.75283 -0.407301,178.17291 c 0.6541232,-3.01084 1.6196117,-5.94898 2.8706683,-8.76252 3.5714475,-7.71916 10.4444157,-14.32736 18.4127167,-17.64448 8.497757,-3.58179 17.903971,-3.72196 26.796287,-0.39453 2.730504,0.99668 7.68797,3.9296 9.681341,5.69458 l 0.970789,0.88253 -4.51624,6.74318 c -2.481335,3.69602 -4.609668,6.76396 -4.744634,6.81069 -0.139294,0.0471 -0.467145,-0.15495 -0.742412,-0.48796 -0.975888,-1.04867 -3.685673,-2.95889 -5.211838,-3.67008 -5.559637,-2.6059 -11.482636,-2.58515 -16.813858,0.0667 -2.382705,1.18348 -3.89331,2.32562 -5.788054,4.37088 -1.707901,1.85839 -2.688969,3.62858 -3.452062,6.27601 -0.41535,1.44303 -0.487943,2.32563 -0.487943,5.2326 0.0256,3.22884 0.0726,3.62337 0.721618,5.57522 1.110868,3.37418 2.481331,5.60635 4.999002,8.16033 3.893309,3.92965 8.648321,5.71537 14.27543,5.34681 3.057548,-0.18257 5.050919,-0.95 7.848896,-2.99524 2.522868,-1.83761 5.258553,-4.65119 7.573767,-7.83332 2.964115,-4.04903 3.914066,-5.51291 8.871533,-13.67326 8.783288,-14.49346 14.02108,-21.06534 20.156914,-25.25454 z"
         id="path824"
         style="fill:#0f90fa;fill-opacity:1;stroke-width:5.19107"
         sodipodi:nodetypes="ssssscccccccccccccccccccccccsccccccccccccccccccccccccc" />
    </g>
  </g>
</svg>
